<?xml version="1.0" encoding="UTF-8" standalone="no"?>
<svg
   xmlns:dc="http://purl.org/dc/elements/1.1/"
   xmlns:cc="http://creativecommons.org/ns#"
   xmlns:rdf="http://www.w3.org/1999/02/22-rdf-syntax-ns#"
   xmlns:svg="http://www.w3.org/2000/svg"
   xmlns="http://www.w3.org/2000/svg"
   xmlns:sodipodi="http://sodipodi.sourceforge.net/DTD/sodipodi-0.dtd"
   xmlns:inkscape="http://www.inkscape.org/namespaces/inkscape"
   viewBox="0 0 65.790192 92.283029"
   version="1.1"
   width="65.790192"
   height="92.283028"
   id="svg5"
   sodipodi:docname="journal.svg"
   inkscape:version="0.92.3 (2405546, 2018-03-11)">
  <metadata
     id="metadata11">
    <rdf:RDF>
      <cc:Work
         rdf:about="">
        <dc:format>image/svg+xml</dc:format>
        <dc:type
           rdf:resource="http://purl.org/dc/dcmitype/StillImage" />
        <dc:title></dc:title>
      </cc:Work>
    </rdf:RDF>
  </metadata>
  <defs
     id="defs9" />
  <sodipodi:namedview
     pagecolor="#ffffff"
     bordercolor="#666666"
     borderopacity="1"
     objecttolerance="10"
     gridtolerance="10"
     guidetolerance="10"
     inkscape:pageopacity="0"
     inkscape:pageshadow="2"
     inkscape:window-width="1920"
     inkscape:window-height="1080"
     id="namedview7"
     showgrid="false"
     inkscape:snap-global="false"
     fit-margin-top="5"
     fit-margin-left="5"
     fit-margin-right="5"
     fit-margin-bottom="5"
     inkscape:zoom="9.44"
     inkscape:cx="54.37071"
     inkscape:cy="40.252376"
     inkscape:window-x="0"
     inkscape:window-y="0"
     inkscape:window-maximized="1"
     inkscape:current-layer="layer1" />
  <g
     inkscape:groupmode="layer"
     id="layer1"
     inkscape:label="Icon"
     style="display:inline">
    <g
       id="g5407"
       transform="translate(8.8388442)">
      <path
         sodipodi:nodetypes="ccsscccccccccccccccccccccccscscccsscssssccccscccccccsccsccccccccccsccccccccccsccccccccccsccccccccccccccccccccsccccccccccccccccccccscccccccccccccccccccccsccccccccc"
         style="fill:#000000;fill-opacity:1;stroke-width:0.97113973"
         d="M 6.0123709,5.0071293 C 5.6521194,5.1354774 5.3978247,5.6441159 5.406907,6.2240578 V 49.653195 c 0,5.167191 1.7104357,8.081166 3.3905989,9.393165 1.6801631,1.312003 3.3421621,1.25496 3.3421621,1.25496 h 23.831066 v -0.114087 c 0.372361,0.06655 0.774994,0.114087 0.774994,0.114087 0,0 1.489442,0.01428 2.978884,-1.331015 1.453113,-1.312003 2.885034,-4.08812 2.954665,-8.898791 0.0091,-0.02377 0.01816,-0.05229 0.02423,-0.07606 v -0.07606 c 0.0031,-0.0618 0.0031,-0.128348 0,-0.190145 v -30.537301 -0.03803 c 0,0 0.01213,-1.426088 -0.460154,-2.890205 -0.472262,-1.464117 -1.57118,-3.042321 -3.293724,-3.042321 v -0.03803 h -7.338234 v 2.433857 h 4.310904 c -0.09385,0.20916 -0.172557,0.399305 -0.242186,0.608465 -0.472261,1.449856 -0.484371,2.890205 -0.484371,2.890205 v 29.510515 c -0.0031,0.437334 0.142284,0.846146 0.38447,1.069566 0.242186,0.218667 0.538861,0.218667 0.781047,0 0.242186,-0.22342 0.387497,-0.632232 0.384471,-1.069566 v -29.51051 c 0,-0.03327 0.03026,-0.912696 0.31484,-1.787363 0.290625,-0.888929 0.699311,-1.673277 1.88905,-1.673277 1.186709,0 1.595398,0.803362 1.889046,1.711305 0.287596,0.893683 0.339061,1.792118 0.339061,1.825393 h -0.02423 v 30.537301 c 0,4.330553 -1.101945,6.155947 -2.203889,7.149457 -1.101945,0.993504 -2.20389,0.988754 -2.20389,0.988754 0,0 -1.310828,-0.02852 -2.615604,-1.064814 -1.304776,-1.036292 -2.567168,-2.856931 -2.567168,-7.149455 V 6.2240578 c 0,-0.6702613 -0.348142,-1.2169285 -0.774994,-1.2169285 H 6.1819015 c -0.057519,-0.00951 -0.1120108,-0.00951 -0.1695306,0 z M 6.956895,7.4409863 H 30.012968 V 49.653195 c 0,4.002556 1.080753,6.621803 2.3492,8.214269 h -20.2225 -0.02422 c 0,0 -0.333005,0.0047 -0.823432,-0.114087 -0.245212,-0.0618 -0.517671,-0.161625 -0.823431,-0.304233 C 10.162828,57.306535 9.8237683,57.13065 9.4998446,56.87871 9.3363701,56.750362 9.1728943,56.617259 9.0154736,56.46039 7.9074744,55.367054 6.9568957,53.479866 6.9568957,49.653195 Z M 10.42015,29.611903 c -0.426852,0.09507 -0.726557,0.717798 -0.6660113,1.388059 0.060545,0.670261 0.4571253,1.140871 0.8839783,1.045798 h 5.255428 c 0.278513,0.0047 0.538863,-0.22342 0.681147,-0.603711 0.139257,-0.38029 0.139257,-0.846145 0,-1.226435 -0.142284,-0.38029 -0.402634,-0.608464 -0.681147,-0.603711 h -5.255428 -0.07266 -0.07266 z m 8.936649,0 c -0.426851,0.09507 -0.726556,0.717798 -0.66601,1.388059 0.06055,0.670261 0.457126,1.140871 0.883977,1.045798 h 5.981986 c 0.278513,0.0047 0.538863,-0.22342 0.681147,-0.603711 0.139257,-0.38029 0.139257,-0.846145 0,-1.226435 -0.142284,-0.38029 -0.402634,-0.608464 -0.681147,-0.603711 h -5.981986 -0.07266 -0.07266 z m -8.936649,4.867714 c -0.426852,0.09507 -0.726557,0.717798 -0.6660113,1.388059 0.060545,0.670261 0.4571253,1.140871 0.8839783,1.045798 h 5.255428 c 0.278513,0.0047 0.538863,-0.22342 0.681147,-0.603711 0.139257,-0.38029 0.139257,-0.846145 0,-1.226435 -0.142284,-0.38029 -0.402634,-0.608464 -0.681147,-0.603711 h -5.255428 -0.07266 -0.07266 z m 8.936649,0 c -0.426851,0.09507 -0.726556,0.717798 -0.66601,1.388059 0.06055,0.670261 0.457126,1.140871 0.883977,1.045798 h 5.981986 c 0.278513,0.0047 0.538863,-0.22342 0.681147,-0.603711 0.139257,-0.38029 0.139257,-0.846145 0,-1.226435 -0.142284,-0.38029 -0.402634,-0.608464 -0.681147,-0.603711 h -5.981986 -0.07266 -0.07266 z m 0,4.601511 c -0.426851,0.09508 -0.726556,0.717799 -0.66601,1.388059 0.06055,0.670262 0.457126,1.140871 0.883977,1.045799 h 5.981986 c 0.278513,0.0047 0.538863,-0.223421 0.681147,-0.603712 0.139257,-0.38029 0.139257,-0.846144 0,-1.226435 -0.142284,-0.380291 -0.402634,-0.608464 -0.681147,-0.603711 h -5.981986 c -0.04843,-0.0095 -0.09687,-0.0095 -0.145311,0 z m -8.936649,0.266203 c -0.426852,0.09507 -0.726557,0.717799 -0.6660113,1.38806 0.060545,0.67026 0.4571253,1.14087 0.8839783,1.045797 h 5.255428 c 0.278513,0.0047 0.538863,-0.22342 0.681147,-0.60371 0.139257,-0.380291 0.139257,-0.846146 0,-1.226436 -0.142284,-0.38029 -0.402634,-0.608464 -0.681147,-0.603711 h -5.255428 -0.07266 -0.07266 z m 8.936649,4.601512 c -0.426851,0.09508 -0.726556,0.717798 -0.66601,1.388059 0.06055,0.670261 0.457126,1.14087 0.883977,1.045798 h 5.981986 c 0.278513,0.0047 0.538863,-0.223421 0.681147,-0.603711 0.139257,-0.380291 0.139257,-0.846146 0,-1.226436 -0.142284,-0.38029 -0.402634,-0.608464 -0.681147,-0.60371 h -5.981986 c -0.04843,-0.0095 -0.09687,-0.0095 -0.145311,0 z m -8.936649,0.266202 c -0.426852,0.09507 -0.726557,0.717798 -0.6660113,1.38806 0.060545,0.670261 0.4571253,1.14087 0.8839783,1.045797 h 5.255428 c 0.278513,0.0047 0.538863,-0.22342 0.681147,-0.60371 0.139257,-0.380291 0.139257,-0.846145 0,-1.226435 -0.142284,-0.380291 -0.402634,-0.608465 -0.681147,-0.603712 h -5.255428 -0.07266 -0.07266 z m 8.936649,4.297279 c -0.426851,0.09508 -0.726556,0.717798 -0.66601,1.38806 0.06055,0.670262 0.457126,1.14087 0.883977,1.045795 h 5.981986 c 0.278513,0.0047 0.538863,-0.223419 0.681147,-0.603707 0.139257,-0.380292 0.139257,-0.846146 0,-1.226437 -0.142284,-0.38029 -0.402634,-0.608464 -0.681147,-0.603711 h -5.981986 -0.07266 -0.07266 z M 10.42015,49.08276 c -0.426852,0.09507 -0.726557,0.717798 -0.6660113,1.38806 0.060545,0.67026 0.4571253,1.140869 0.8839783,1.045798 h 5.255428 c 0.278513,0.0047 0.538863,-0.223423 0.681147,-0.603711 0.139257,-0.380293 0.139257,-0.846146 0,-1.226436 -0.142284,-0.380291 -0.402634,-0.608465 -0.681147,-0.603711 h -5.255428 -0.07266 -0.07266 z"
         id="path2"
         inkscape:connector-curvature="0" />
      <path
         id="path2-3"
         d="m 24.655417,26.18933 c -0.706611,-0.378043 -1.116455,-0.803781 -1.206543,-1.2675 -0.08655,-0.448261 0.113023,-0.946426 0.611666,-1.523647 1.191096,-1.366425 1.846924,-3.122372 1.846924,-4.943242 a 7.5431587,7.5431587 0 0 0 -7.532996,-7.533002 l -0.03309,4.43e-4 -0.03396,-4.43e-4 a 7.5431587,7.5431587 0 0 0 -7.532563,7.533002 7.5210767,7.5210767 0 0 0 1.847361,4.943684 c 0.502143,0.581195 0.6978,1.059929 0.618301,1.503333 -0.08655,0.462393 -0.493313,0.894314 -1.210078,1.286046 C 10.92633,25.271608 9.954732,24.047831 9.3594192,22.820081 a 9.954496,9.954496 0 0 1 -0.744159,-2.091152 9.989827,9.989827 0 0 1 -0.26058,-2.27443 9.9015,9.9015 0 0 1 0.782141,-3.876687 C 9.638964,13.392457 10.356634,12.32723 11.271251,11.413482 a 9.941247,9.941247 0 0 1 3.164768,-2.1339895 9.8970835,9.8970835 0 0 1 3.876257,-0.782581 h 0.06757 a 9.9015,9.9015 0 0 1 3.876693,0.782581 c 1.185349,0.501699 2.25057,1.2189185 3.164768,2.1339895 a 9.9324145,9.9324145 0 0 1 2.133997,3.16433 9.9015,9.9015 0 0 1 0.78301,3.876687 c 0,0.767566 -0.0883,1.53248 -0.26499,2.27443 a 9.905916,9.905916 0 0 1 -0.74459,2.091152 c -0.59974,1.22775 -1.5709,2.45241 -2.671909,3.368806 m -3.680147,1.863707 c -0.115809,-0.07286 -0.51099,-0.366557 -0.896539,-0.900938 -0.36965,-0.510091 -0.804659,-1.356709 -0.781688,-2.48995 a 5.5027958,5.5027958 0 0 1 0.407196,-1.974116 5.6087888,5.6087888 0 0 1 1.083768,-1.692795 l 0.0035,-0.0043 0.1024,-0.11924 c 0.175351,-0.203153 0.356867,-0.413815 0.501272,-0.659364 0.178417,-0.30208 0.307827,-0.620058 0.385115,-0.945103 a 3.5551772,3.5551772 0 0 0 0.01933,-1.539547 c -0.09805,-0.464595 -0.295915,-0.914181 -0.571489,-1.302822 a 3.5507608,3.5507608 0 0 0 -1.006934,-0.948194 3.5065971,3.5065971 0 0 0 -1.354936,-0.493308 3.5330954,3.5330954 0 0 0 -0.49596,-0.03534 h -0.07158 a 3.493348,3.493348 0 0 0 -0.495072,0.0349 3.5110136,3.5110136 0 0 0 -1.354937,0.493308 3.5507608,3.5507608 0 0 0 -1.007368,0.948194 3.5375118,3.5375118 0 0 0 -0.571037,1.302829 3.5463445,3.5463445 0 0 0 0.01985,1.539547 c 0.0768,0.325043 0.206681,0.642581 0.384226,0.945101 0.145763,0.245994 0.326809,0.455771 0.50169,0.659366 l 0.102923,0.11924 0.0018,0.0043 c 0.465484,0.501258 0.830275,1.07097 1.08422,1.692793 a 5.4895468,5.4895468 0 0 1 0.406744,1.973676 c 0.02299,1.133241 -0.412038,1.979858 -0.781688,2.48995 -0.386002,0.529963 -0.781706,0.828069 -0.896522,0.900939 l -0.577236,-0.173558 c -0.572361,-0.191671 -1.129256,-0.441637 -1.659228,-0.73135 0.909775,-0.485801 1.488317,-1.445921 1.488317,-2.488184 0,-0.688953 -0.268069,-1.351409 -0.796264,-1.965283 -0.0087,-0.0089 -0.01568,-0.01672 -0.02212,-0.02297 l -0.158156,-0.17312 -0.423967,-0.496842 a 5.9444332,5.9444332 0 0 1 -1.015763,-2.171087 5.9841802,5.9841802 0 0 1 -0.03274,-2.601241 c 0.165616,-0.786998 0.500384,-1.54573 0.971598,-2.207303 0.451361,-0.635956 1.039621,-1.189327 1.700309,-1.601375 a 5.9532657,5.9532657 0 0 1 2.296511,-0.83646 5.8340237,5.8340237 0 0 1 0.83557,-0.05874 h 0.07506 a 5.8870202,5.8870202 0 0 1 0.836022,0.05874 5.9532657,5.9532657 0 0 1 2.296511,0.83646 5.9974292,5.9974292 0 0 1 1.701198,1.601375 c 0.466355,0.656715 0.801123,1.420305 0.971598,2.207303 a 6.0239277,6.0239277 0 0 1 -0.03309,2.605658 5.9444332,5.9444332 0 0 1 -1.01665,2.171086 c -0.132528,0.176654 -0.272057,0.329902 -0.423985,0.496842 l -0.153252,0.169151 c -0.01045,0.0101 -0.0195,0.01766 -0.02647,0.02826 -0.535701,0.640373 -0.796264,1.283838 -0.796264,1.963958 a 2.8308926,2.8308926 0 0 0 1.490076,2.488184 9.941247,9.941247 0 0 1 -1.659228,0.731352 l -0.574136,0.173557 m -2.648047,-7.540062 a 1.9697007,1.9697007 0 0 1 -1.966166,-1.966167 1.9697007,1.9697007 0 0 1 1.966166,-1.966168 1.9697007,1.9697007 0 0 1 1.965731,1.966168 1.9697007,1.9697007 0 0 1 -1.965731,1.966167"
         style="display:inline;fill:#f0424d;stroke-width:0.44163692"
         inkscape:connector-curvature="0" />
    </g>
    <path
       style="opacity:1;fill:#ffffff;fill-opacity:1;stroke:none;stroke-width:0.10609902;stroke-miterlimit:4;stroke-dasharray:none;stroke-opacity:1"
       d="M 20.03248,57.665906 C 17.731479,56.945211 16.350913,54.947902 15.963507,51.779193 15.89108,51.186792 15.853761,43.505057 15.853761,29.18915 V 7.4967529 H 27.347405 38.841049 V 29.384641 c 0,23.846116 -0.02268,22.88807 0.592086,25.009503 0.30794,1.062637 0.837527,2.250174 1.309202,2.935729 l 0.333466,0.484677 -10.306996,-0.0071 C 22.751576,57.80195 20.366433,57.77049 20.03248,57.665893 Z m 5.137727,-6.307633 c 0.488899,-0.488899 0.488899,-1.640921 0,-2.12982 -0.194413,-0.194413 -0.373824,-0.206276 -3.119412,-0.206276 -3.28862,0 -3.209381,-0.01938 -3.441292,0.841869 -0.138048,0.512669 0.0052,1.177519 0.321879,1.494227 0.194413,0.194413 0.373824,0.206277 3.119413,0.206277 2.745588,0 2.924999,-0.01186 3.119412,-0.206277 z m 9.469897,-0.441018 c 0.365866,-0.166699 0.546284,-0.567898 0.546284,-1.214788 0,-0.403082 -0.06222,-0.642174 -0.223243,-0.857904 l -0.223242,-0.299081 -3.219554,-0.02965 c -1.770755,-0.01631 -3.325944,-0.0037 -3.455975,0.02802 -0.703845,0.171677 -0.745484,1.974388 -0.0549,2.376619 0.264299,0.15394 6.292122,0.151018 6.630625,-0.0032 z m -9.470727,-4.410968 c 0.491233,-0.39781 0.49172,-1.659824 8.26e-4,-2.150715 -0.194409,-0.194413 -0.37382,-0.206277 -3.119408,-0.206277 -2.739309,0 -2.925368,0.01223 -3.118122,0.204986 -0.477102,0.477102 -0.504603,1.582643 -0.05153,2.071517 l 0.2464,0.26587 h 2.906458 c 2.610227,0 2.92979,-0.01889 3.135376,-0.185381 z m 9.470727,-0.144117 c 0.365866,-0.166699 0.546284,-0.567898 0.546284,-1.214788 0,-0.403089 -0.06222,-0.64217 -0.223249,-0.857903 l -0.223248,-0.299082 -3.405593,-0.02795 -3.405595,-0.02795 -0.210804,0.345748 c -0.380567,0.624184 -0.217756,1.788482 0.29158,2.085143 0.264299,0.15394 6.292122,0.151018 6.630625,-0.0032 z m -9.470727,-4.728765 c 0.501451,-0.406083 0.491117,-1.670825 -0.01752,-2.144696 -0.216494,-0.201694 -0.37234,-0.212295 -3.121033,-0.212295 -2.725795,0 -2.905094,0.01193 -3.099438,0.206276 -0.309103,0.309103 -0.452921,0.964595 -0.33085,1.507937 0.186804,0.831464 0.173038,0.82816 3.450263,0.82816 2.594233,0 2.913068,-0.01895 3.118582,-0.185382 z m 9.470727,-0.144116 c 0.365866,-0.166699 0.546284,-0.567898 0.546284,-1.214788 0,-0.403089 -0.06222,-0.642171 -0.223249,-0.857904 l -0.223248,-0.299081 -3.405593,-0.02795 -3.405595,-0.02795 -0.210804,0.345748 c -0.380567,0.624183 -0.217756,1.788482 0.29158,2.085143 0.264299,0.15394 6.292122,0.151018 6.630625,-0.0032 z m -9.490919,-4.70616 c 0.603137,-0.422453 0.504602,-1.964202 -0.144433,-2.259923 -0.17391,-0.07924 -1.202709,-0.119673 -3.044899,-0.119673 -2.637701,0 -2.794083,0.01103 -3.010117,0.212295 -0.483211,0.45018 -0.540255,1.519471 -0.110223,2.066169 l 0.207591,0.263908 h 2.934842 c 2.46838,0 2.97178,-0.02587 3.167239,-0.162776 z m 9.7619,-0.112801 c 0.436164,-0.554492 0.413953,-1.555148 -0.0447,-2.013801 L 34.61339,34.403533 h -3.22984 c -3.197405,0 -3.232625,0.0024 -3.507128,0.238512 -0.467669,0.402271 -0.495253,1.649066 -0.04641,2.097905 0.195247,0.195248 0.379035,0.205955 3.535131,0.205955 h 3.329176 z m -9.649009,-4.861213 c 0.450597,-0.572841 0.369188,-1.647738 -0.156087,-2.060919 -0.26333,-0.207136 -0.412279,-0.217545 -3.11303,-0.217545 h -2.836467 l -0.264314,0.314121 c -0.458383,0.544756 -0.461355,1.527977 -0.0061,2.030984 0.166102,0.183541 0.386927,0.197268 3.173485,0.197268 h 2.994961 z m 9.644469,-0.0059 c 0.431987,-0.549184 0.41222,-1.511982 -0.04109,-2.001107 l -0.251582,-0.271457 h -3.189988 c -1.985308,0 -3.266955,0.04119 -3.393793,0.109072 -0.306097,0.163819 -0.523793,0.668824 -0.523793,1.215081 0,0.505107 0.214,1.053178 0.447983,1.147321 0.07405,0.0298 1.620856,0.05794 3.437337,0.06254 l 3.302693,0.0084 0.212229,-0.269805 z m -9.805218,-4.199638 c 1.255164,-1.319451 1.474871,-3.445551 0.550718,-5.329282 -0.142918,-0.291313 -0.527872,-0.863347 -0.855454,-1.271186 -0.942445,-1.173344 -1.049397,-1.432519 -1.049146,-2.542373 1.91e-4,-0.836807 0.03616,-1.021842 0.294182,-1.513173 0.361979,-0.689295 0.976158,-1.298557 1.638805,-1.625686 0.418643,-0.206672 0.668352,-0.247872 1.508074,-0.248819 0.88579,-9.95e-4 1.070321,0.03257 1.540271,0.28019 0.652512,0.343815 1.368119,1.100398 1.66915,1.764726 0.168653,0.372191 0.22444,0.70595 0.22444,1.342762 0,1.03821 -0.190149,1.500204 -1.042597,2.533149 -1.103343,1.336964 -1.486896,2.396372 -1.418325,3.917537 0.05208,1.155255 0.331216,1.853191 1.06323,2.658404 l 0.480532,0.528583 0.516013,-0.136016 c 0.283809,-0.07481 0.825434,-0.279788 1.203612,-0.45551 l 0.687597,-0.319493 -0.453856,-0.376998 c -0.631038,-0.524176 -0.996962,-1.283737 -1.009044,-2.094509 -0.01182,-0.793261 0.23654,-1.375712 0.928186,-2.176757 1.098137,-1.271831 1.586634,-2.529454 1.584164,-4.07839 -0.0026,-1.654997 -0.562457,-3.005665 -1.736084,-4.188623 -2.352251,-2.370952 -6.049822,-2.390088 -8.441649,-0.04369 -2.328678,2.284451 -2.424632,5.679665 -0.233747,8.270797 0.739283,0.874341 0.942825,1.343239 0.940018,2.16551 -0.003,0.86498 -0.274432,1.483315 -0.911873,2.076929 l -0.478935,0.446005 0.456981,0.233135 c 0.570491,0.291042 1.453705,0.608823 1.720564,0.619059 0.110981,0.0043 0.391859,-0.19207 0.624173,-0.436283 z m -3.303653,-2.096002 c 0.549433,-0.661315 0.421298,-1.23355 -0.551905,-2.464743 -1.347322,-1.704491 -1.884577,-4.146379 -1.377844,-6.262469 0.815842,-3.406914 3.804235,-5.785436 7.267615,-5.784442 1.309587,3.71e-4 2.259287,0.222278 3.434867,0.802573 1.754605,0.866119 3.17215,2.527756 3.773224,4.422952 0.721134,2.273746 0.281876,4.794518 -1.17199,6.725703 -0.756939,1.005449 -0.898389,1.290055 -0.898389,1.807606 0,0.473501 0.357372,0.97107 0.942565,1.312329 l 0.327688,0.191096 0.742809,-0.760705 c 1.632213,-1.671535 2.560245,-3.590691 2.859509,-5.913417 0.436431,-3.387352 -1.068067,-6.933675 -3.838861,-9.04876 C 29.01176,7.2565564 22.92281,7.9327756 19.457239,12.073404 c -0.819103,0.978655 -1.715519,2.768348 -2.031971,4.056823 -0.325858,1.326776 -0.324589,3.317318 0.003,4.654655 0.438434,1.790023 1.721887,3.974746 2.953481,5.02748 0.490792,0.419517 0.494461,0.420627 0.80146,0.242537 0.169626,-0.0984 0.44615,-0.344696 0.614498,-0.547324 z m 6.290632,-5.192724 c 1.086762,-0.526092 1.421384,-1.93882 0.696315,-2.939747 -0.382045,-0.527398 -0.964008,-0.8105 -1.65183,-0.80355 -1.965083,0.01986 -2.6849,2.59359 -1.020567,3.649078 0.594059,0.376742 1.320883,0.411396 1.976082,0.09422 z"
       id="path8081"
       inkscape:connector-curvature="0" />
    <path
       style="opacity:1;fill:#ffffff;fill-opacity:1;stroke:none;stroke-width:0.10609902;stroke-miterlimit:4;stroke-dasharray:none;stroke-opacity:1"
       d="M 44.761862,57.661005 C 43.959669,57.439783 43.172591,56.954084 42.474648,56.24959 41.373197,55.1378 40.773214,53.615142 40.539618,51.338802 40.468929,50.649957 40.430032,44.127265 40.430032,32.962224 V 15.653533 h 2.129978 c 1.988714,0 2.124617,0.01229 2.049163,0.185381 -0.04445,0.10196 -0.180485,0.519068 -0.302306,0.926907 -0.219845,0.736007 -0.221698,0.859368 -0.249078,16.57839 -0.02727,15.655904 -0.02517,15.840798 0.183483,16.181144 0.348507,0.568456 1.01876,0.431684 1.282377,-0.261683 0.05712,-0.150222 0.09782,-6.475956 0.0989,-15.370214 0.002,-16.425257 -0.0153,-15.918769 0.585519,-17.14679 0.393172,-0.803617 0.837811,-1.034253 1.924846,-0.998428 0.437609,0.01442 1.053961,0.546366 1.301101,1.122919 0.545983,1.273729 0.529915,0.734583 0.529915,17.780409 0,10.21487 -0.03919,16.220398 -0.110461,16.928241 -0.250403,2.486842 -0.77485,3.836879 -1.952667,5.026571 -1.082336,1.093248 -1.946297,1.383522 -3.13894,1.054625 z"
       id="path8083"
       inkscape:connector-curvature="0" />
  </g>
  <g
     inkscape:groupmode="layer"
     id="layer2"
     inkscape:label="Label"
     style="display:inline">
    <g
       id="g2682">
      <rect
         style="fill:#ffffff;stroke:#000000;stroke-width:0.78593862"
         id="rect961"
         pointer-events="none"
         ry="3.032109"
         rx="1.8334749"
         height="20.21406"
         width="55.004253"
         y="66.676003"
         x="5.3929691" />
      <text
         id="text987-3"
         y="81.156349"
         x="11.4177"
         style="font-style:normal;font-variant:normal;font-weight:300;font-stretch:normal;font-size:40px;line-height:125%;font-family:'Clear Sans Light';-inkscape-font-specification:'Clear Sans Light, Light';letter-spacing:0px;word-spacing:0px;fill:#000000;fill-opacity:1;stroke:none;stroke-width:0.99999994px;stroke-linecap:butt;stroke-linejoin:miter;stroke-opacity:1"
         xml:space="preserve"><tspan
           style="font-style:normal;font-variant:normal;font-weight:normal;font-stretch:normal;font-size:13.33333302px;font-family:'Source Sans Pro';-inkscape-font-specification:'Source Sans Pro';stroke-width:0.99999994px"
           y="81.156349"
           x="11.4177"
           id="tspan985-6">Journal</tspan></text>
    </g>
  </g>
</svg>
