<?xml version="1.0" encoding="UTF-8" standalone="no"?>
<svg
   xmlns:dc="http://purl.org/dc/elements/1.1/"
   xmlns:cc="http://creativecommons.org/ns#"
   xmlns:rdf="http://www.w3.org/1999/02/22-rdf-syntax-ns#"
   xmlns:svg="http://www.w3.org/2000/svg"
   xmlns="http://www.w3.org/2000/svg"
   xmlns:sodipodi="http://sodipodi.sourceforge.net/DTD/sodipodi-0.dtd"
   xmlns:inkscape="http://www.inkscape.org/namespaces/inkscape"
   id="svg7846"
   version="1.1"
   viewBox="0 0 13.760345 22.3575"
   height="84.500786"
   width="52.007603"
   sodipodi:docname="osd.svg"
   inkscape:version="0.92.3 (2405546, 2018-03-11)">
  <sodipodi:namedview
     pagecolor="#ffffff"
     bordercolor="#666666"
     borderopacity="1"
     objecttolerance="10"
     gridtolerance="10"
     guidetolerance="10"
     inkscape:pageopacity="0"
     inkscape:pageshadow="2"
     inkscape:window-width="1920"
     inkscape:window-height="1080"
     id="namedview52464"
     showgrid="false"
     inkscape:zoom="2.7928734"
     inkscape:cx="-12.66605"
     inkscape:cy="42.250393"
     inkscape:window-x="0"
     inkscape:window-y="0"
     inkscape:window-maximized="1"
     inkscape:current-layer="layer6" />
  <defs
     id="defs7840" />
  <metadata
     id="metadata7843">
    <rdf:RDF>
      <cc:Work
         rdf:about="">
        <dc:format>image/svg+xml</dc:format>
        <dc:type
           rdf:resource="http://purl.org/dc/dcmitype/StillImage" />
        <dc:title></dc:title>
      </cc:Work>
    </rdf:RDF>
  </metadata>
  <g
     transform="translate(-96.685304,-146.9752)"
     id="layer2" />
  <g
     inkscape:groupmode="layer"
     id="layer6"
     inkscape:label="Icon"
     style="display:inline">
    <g
       id="g53025">
      <path
         style="fill:#515151;stroke:none;stroke-width:0.26458332"
         id="path929"
         pointer-events="none"
         d="M 1.853089,14.48859 V 1.95792 C 1.866319,1.6219 2.130901,1.34938 2.466922,1.32292 h 5.214934 c 0.34925,0.0132 0.62707,0.29104 0.6403,0.635 v 4.01637 c -1.23296,0.10584 -2.16959,0.65882 -2.2569,1.33615 v 3.9661 H 2.829401 v 0.63236 h 3.235855 v 0.64823 H 2.829401 v 0.635 h 3.235855 c -0.0212,0.52652 0.25135,1.02129 0.70644,1.29646 z M 2.829401,3.89996 H 7.388176 V 3.25173 H 2.829401 Z M 9.258776,6.55638 C 7.848546,6.56698 6.724066,6.985 6.750526,7.493 c 0.0265,0.508 1.19063,0.91017 2.60085,0.90223 1.41288,0 2.55588,-0.41275 2.55588,-0.92075 0,-0.50535 -1.143,-0.9181 -2.55588,-0.9181 z m -2.52677,1.54781 c 0.30692,0.38365 1.37054,0.65087 2.58762,0.65087 1.21709,0 2.27807,-0.26722 2.58498,-0.65087 v 5.35252 c -0.0688,0.2884 -0.39687,0.55563 -0.92075,0.75406 -0.92868,0.32544 -2.22779,0.34132 -3.19616,0.0397 -0.57415,-0.15875 -0.96838,-0.45508 -1.05569,-0.79375 z"
         inkscape:connector-curvature="0" />
      <path
         id="path2"
         d="m 10.709176,13.45087 c -0.15531,-0.0831 -0.24539,-0.17667 -0.2652,-0.27859 -0.019,-0.0985 0.0248,-0.20802 0.13445,-0.3349 0.2618,-0.30033 0.40595,-0.68628 0.40595,-1.08651 a 1.6579664,1.6579664 0 0 0 -1.65574,-1.65573 l -0.007,10e-5 -0.007,-10e-5 a 1.6579664,1.6579664 0 0 0 -1.65564,1.65573 1.6531128,1.6531128 0 0 0 0.40605,1.08661 c 0.11037,0.12775 0.15337,0.23297 0.1359,0.33043 -0.019,0.10163 -0.10843,0.19657 -0.26597,0.28267 -0.24268,-0.20142 -0.45624,-0.4704 -0.58708,-0.74026 a 2.187972,2.187972 0 0 1 -0.16357,-0.45963 2.1957376,2.1957376 0 0 1 -0.0573,-0.49992 2.1763236,2.1763236 0 0 1 0.17191,-0.85208 c 0.11037,-0.26054 0.26812,-0.49467 0.46915,-0.69551 a 2.1850599,2.1850599 0 0 1 0.6956,-0.46905 2.1753529,2.1753529 0 0 1 0.852,-0.17201 h 0.0148 a 2.1763236,2.1763236 0 0 1 0.85208,0.17201 c 0.26054,0.11028 0.49467,0.26792 0.69561,0.46905 a 2.1831185,2.1831185 0 0 1 0.46905,0.69551 2.1763236,2.1763236 0 0 1 0.1721,0.85208 c 0,0.16872 -0.0194,0.33684 -0.0582,0.49992 a 2.1772943,2.1772943 0 0 1 -0.16366,0.45963 c -0.13182,0.26986 -0.34528,0.53903 -0.58728,0.74046 m -0.80888,0.40963 c -0.0254,-0.016 -0.11232,-0.0806 -0.19706,-0.19802 -0.0812,-0.11212 -0.17686,-0.2982 -0.17181,-0.54729 a 1.2095,1.2095 0 0 1 0.0895,-0.4339 1.232797,1.232797 0 0 1 0.2382,-0.37207 l 7.7e-4,-7.7e-4 0.0225,-0.0262 c 0.0385,-0.0446 0.0784,-0.0909 0.11018,-0.14493 0.0392,-0.0664 0.0677,-0.13628 0.0846,-0.20773 a 0.78141858,0.78141858 0 0 0 0.004,-0.33838 c -0.0215,-0.10212 -0.065,-0.20094 -0.12561,-0.28636 a 0.78044786,0.78044786 0 0 0 -0.22132,-0.20841 0.77074081,0.77074081 0 0 0 -0.29782,-0.10843 0.77656506,0.77656506 0 0 0 -0.10901,-0.008 h -0.0157 a 0.76782869,0.76782869 0 0 0 -0.10881,0.008 0.77171153,0.77171153 0 0 0 -0.29781,0.10842 0.78044786,0.78044786 0 0 0 -0.22142,0.20842 0.77753578,0.77753578 0 0 0 -0.12551,0.28635 0.77947718,0.77947718 0 0 0 0.004,0.33839 c 0.0169,0.0714 0.0454,0.14124 0.0845,0.20773 0.032,0.0541 0.0718,0.10018 0.11027,0.14493 l 0.0226,0.0262 3.8e-4,7.7e-4 c 0.10231,0.11017 0.18249,0.23539 0.23831,0.37207 a 1.2065879,1.2065879 0 0 1 0.0894,0.4338 c 0.005,0.24909 -0.0906,0.43517 -0.17181,0.54729 -0.0848,0.11648 -0.17182,0.18201 -0.19706,0.19802 l -0.12687,-0.0382 c -0.12581,-0.0421 -0.24821,-0.0971 -0.3647,-0.16075 0.19997,-0.10678 0.32713,-0.31781 0.32713,-0.54689 0,-0.15143 -0.0589,-0.29704 -0.17501,-0.43197 -0.002,-0.002 -0.003,-0.004 -0.005,-0.005 l -0.0348,-0.038 -0.0932,-0.1092 a 1.3065708,1.3065708 0 0 1 -0.22327,-0.4772 1.3153071,1.3153071 0 0 1 -0.007,-0.57175 c 0.0364,-0.17298 0.10999,-0.33975 0.21356,-0.48516 0.0992,-0.13978 0.2285,-0.26141 0.37372,-0.35198 a 1.3085121,1.3085121 0 0 1 0.50477,-0.18385 1.2823031,1.2823031 0 0 1 0.18365,-0.0129 h 0.0165 a 1.2939515,1.2939515 0 0 1 0.18376,0.0129 1.3085121,1.3085121 0 0 1 0.50477,0.18385 1.3182191,1.3182191 0 0 1 0.37392,0.35198 c 0.1025,0.14434 0.17608,0.31218 0.21355,0.48516 a 1.3240434,1.3240434 0 0 1 -0.007,0.57271 1.3065708,1.3065708 0 0 1 -0.22346,0.4772 c -0.0291,0.0388 -0.0598,0.0725 -0.0932,0.10921 l -0.0337,0.0372 c -0.002,0.002 -0.004,0.004 -0.006,0.006 -0.11774,0.14075 -0.17501,0.28218 -0.17501,0.43167 a 0.62222274,0.62222274 0 0 0 0.32751,0.5469 2.1850599,2.1850599 0 0 1 -0.36469,0.16075 l -0.1262,0.0382 M 9.321466,12.2039 a 0.43293502,0.43293502 0 0 1 -0.43216,-0.43216 0.43293502,0.43293502 0 0 1 0.43216,-0.43215 0.43293502,0.43293502 0 0 1 0.43206,0.43215 0.43293502,0.43293502 0 0 1 -0.43206,0.43216"
         style="fill:#f0424d;stroke-width:0.09707063"
         inkscape:connector-curvature="0" />
    </g>
  </g>
  <g
     inkscape:groupmode="layer"
     id="layer5"
     inkscape:label="Label"
     style="display:inline">
    <g
       id="g53021">
      <g
         transform="translate(-100.92404,-144.77023)"
         id="g8439">
        <rect
           x="102.3373"
           y="160.33891"
           width="10.93381"
           height="5.3755488"
           rx="0.36446032"
           ry="0.80633229"
           pointer-events="none"
           id="rect961"
           style="fill:#ffffff;stroke:#000000;stroke-width:0.18070114" />
        <text
           xml:space="preserve"
           style="font-style:normal;font-variant:normal;font-weight:300;font-stretch:normal;font-size:10.58333302px;line-height:125%;font-family:'Clear Sans Light';-inkscape-font-specification:'Clear Sans Light, Light';letter-spacing:0px;word-spacing:0px;fill:#000000;fill-opacity:1;stroke:none;stroke-width:0.26458332px;stroke-linecap:butt;stroke-linejoin:miter;stroke-opacity:1"
           x="104.60581"
           y="164.18379"
           id="text987-3"><tspan
             id="tspan985-6"
             x="104.60581"
             y="164.18379"
             style="font-style:normal;font-variant:normal;font-weight:normal;font-stretch:normal;font-size:3.52777767px;font-family:'Source Sans Pro';-inkscape-font-specification:'Source Sans Pro';stroke-width:0.26458332px">OSD</tspan></text>
      </g>
    </g>
  </g>
</svg>
