<?xml version="1.0" encoding="UTF-8" standalone="no"?>
<!-- Created with Inkscape (http://www.inkscape.org/) -->

<svg
   xmlns:dc="http://purl.org/dc/elements/1.1/"
   xmlns:cc="http://creativecommons.org/ns#"
   xmlns:rdf="http://www.w3.org/1999/02/22-rdf-syntax-ns#"
   xmlns:svg="http://www.w3.org/2000/svg"
   xmlns="http://www.w3.org/2000/svg"
   xmlns:sodipodi="http://sodipodi.sourceforge.net/DTD/sodipodi-0.dtd"
   xmlns:inkscape="http://www.inkscape.org/namespaces/inkscape"
   width="15.475mm"
   height="15.23129mm"
   viewBox="0 0 15.475 15.23129"
   version="1.1"
   id="svg873"
   sodipodi:docname="ceph-logo-notext.svg"
   inkscape:version="0.92.3 (2405546, 2018-03-11)">
  <defs
     id="defs867" />
  <sodipodi:namedview
     id="base"
     pagecolor="#ffffff"
     bordercolor="#666666"
     borderopacity="1.0"
     inkscape:pageopacity="0.0"
     inkscape:pageshadow="2"
     inkscape:zoom="0.98994949"
     inkscape:cx="573.78177"
     inkscape:cy="-227.4011"
     inkscape:document-units="mm"
     inkscape:current-layer="layer1"
     showgrid="false"
     fit-margin-top="2"
     fit-margin-left="2"
     fit-margin-right="2"
     fit-margin-bottom="2"
     inkscape:window-width="1920"
     inkscape:window-height="1080"
     inkscape:window-x="0"
     inkscape:window-y="0"
     inkscape:window-maximized="1" />
  <metadata
     id="metadata870">
    <rdf:RDF>
      <cc:Work
         rdf:about="">
        <dc:format>image/svg+xml</dc:format>
        <dc:type
           rdf:resource="http://purl.org/dc/dcmitype/StillImage" />
        <dc:title></dc:title>
      </cc:Work>
    </rdf:RDF>
  </metadata>
  <g
     inkscape:label="Layer 1"
     inkscape:groupmode="layer"
     id="layer1"
     transform="translate(375.65326,-61.842694)">
    <path
       inkscape:connector-curvature="0"
       style="fill:#f0424d;stroke-width:0.25359628"
       d="m -364.29306,74.002025 c -0.40575,-0.217079 -0.64109,-0.461546 -0.69282,-0.727822 -0.0497,-0.2574 0.0649,-0.543456 0.35123,-0.874907 0.68395,-0.784627 1.06054,-1.792925 1.06054,-2.838503 a 4.3314244,4.3314244 0 0 0 -4.32559,-4.325592 l -0.019,2.54e-4 -0.0195,-2.54e-4 a 4.3314244,4.3314244 0 0 0 -4.32534,4.325592 4.3187445,4.3187445 0 0 0 1.06079,2.838757 c 0.28834,0.333733 0.40069,0.608631 0.35504,0.863242 -0.0497,0.265515 -0.28327,0.513532 -0.69485,0.738472 -0.634,-0.526212 -1.19191,-1.228928 -1.53375,-1.933925 a 5.7160599,5.7160599 0 0 1 -0.42731,-1.200779 5.7363476,5.7363476 0 0 1 -0.14963,-1.306021 5.6856286,5.6856286 0 0 1 0.44912,-2.226067 c 0.28834,-0.680653 0.70044,-1.292327 1.22563,-1.817018 a 5.7084521,5.7084521 0 0 1 1.81727,-1.225377 5.6830926,5.6830926 0 0 1 2.22582,-0.449373 h 0.0388 a 5.6856286,5.6856286 0 0 1 2.22607,0.449373 c 0.68065,0.288085 1.29232,0.699926 1.81727,1.225377 a 5.7033803,5.7033803 0 0 1 1.22538,1.817018 5.6856286,5.6856286 0 0 1 0.44962,2.226067 c 0,0.440751 -0.0507,0.879979 -0.15216,1.306021 a 5.6881644,5.6881644 0 0 1 -0.42756,1.200779 c -0.34438,0.704997 -0.90204,1.40822 -1.53426,1.934432 m -2.11321,1.070176 c -0.0665,-0.04184 -0.29342,-0.210484 -0.51481,-0.517336 -0.21226,-0.292904 -0.46205,-0.779048 -0.44886,-1.429776 a 3.1598095,3.1598095 0 0 1 0.23382,-1.133575 3.2206726,3.2206726 0 0 1 0.62232,-0.972035 l 0.002,-0.0025 0.0588,-0.06847 c 0.10069,-0.116654 0.20492,-0.23762 0.28784,-0.378619 0.10245,-0.17346 0.17676,-0.356049 0.22114,-0.542696 a 2.04145,2.04145 0 0 0 0.0111,-0.884037 c -0.0563,-0.266779 -0.16992,-0.52494 -0.32816,-0.748105 a 2.038914,2.038914 0 0 0 -0.5782,-0.544471 2.0135544,2.0135544 0 0 0 -0.77803,-0.283267 2.0287702,2.0287702 0 0 0 -0.28479,-0.02029 h -0.0411 a 2.0059465,2.0059465 0 0 0 -0.28428,0.02004 2.0160904,2.0160904 0 0 0 -0.77803,0.283267 2.038914,2.038914 0 0 0 -0.57845,0.544471 2.0313062,2.0313062 0 0 0 -0.3279,0.748109 2.0363781,2.0363781 0 0 0 0.0114,0.884037 c 0.0441,0.186646 0.11868,0.368982 0.22063,0.542695 0.0837,0.141254 0.18766,0.261712 0.28808,0.37862 l 0.0591,0.06847 10e-4,0.0025 c 0.26729,0.287832 0.47676,0.614971 0.62258,0.972034 a 3.1522016,3.1522016 0 0 1 0.23356,1.133322 c 0.0132,0.650728 -0.2366,1.136872 -0.44886,1.429776 -0.22165,0.304315 -0.44887,0.475493 -0.5148,0.517336 l -0.33146,-0.09966 c -0.32866,-0.110061 -0.64844,-0.253596 -0.95276,-0.419955 0.52241,-0.278956 0.85462,-0.830275 0.85462,-1.428762 0,-0.39561 -0.15393,-0.776005 -0.45723,-1.128503 -0.005,-0.0051 -0.009,-0.0096 -0.0127,-0.01319 l -0.0908,-0.09941 -0.24345,-0.285296 a 3.413406,3.413406 0 0 1 -0.58327,-1.246679 3.4362295,3.4362295 0 0 1 -0.0188,-1.493682 c 0.0951,-0.451909 0.28733,-0.887587 0.55791,-1.267475 0.25918,-0.365178 0.59697,-0.682934 0.97635,-0.91954 a 3.4184778,3.4184778 0 0 1 1.3187,-0.480311 3.3500068,3.3500068 0 0 1 0.4798,-0.03373 h 0.0431 a 3.3804384,3.3804384 0 0 1 0.48006,0.03373 3.4184778,3.4184778 0 0 1 1.3187,0.480311 3.4438373,3.4438373 0 0 1 0.97686,0.91954 c 0.26779,0.377098 0.46002,0.815566 0.55791,1.267475 a 3.4590532,3.4590532 0 0 1 -0.019,1.496218 3.413406,3.413406 0 0 1 -0.58378,1.246679 c -0.0761,0.101438 -0.15622,0.189436 -0.24346,0.285296 l -0.088,0.09713 c -0.006,0.0058 -0.0112,0.01014 -0.0152,0.01623 -0.30761,0.367714 -0.45723,0.737204 -0.45723,1.127742 a 1.6255521,1.6255521 0 0 0 0.85563,1.428762 5.7084521,5.7084521 0 0 1 -0.95276,0.419956 l -0.32968,0.09966 m -1.52056,-4.329647 a 1.1310394,1.1310394 0 0 1 -1.12901,-1.12901 1.1310394,1.1310394 0 0 1 1.12901,-1.129011 1.1310394,1.1310394 0 0 1 1.12876,1.129011 1.1310394,1.1310394 0 0 1 -1.12876,1.12901"
       id="path2" />
  </g>
</svg>
