<?xml version="1.0" encoding="UTF-8" standalone="no"?>
<!-- Created with Inkscape (http://www.inkscape.org/) -->

<svg
   xmlns:dc="http://purl.org/dc/elements/1.1/"
   xmlns:cc="http://creativecommons.org/ns#"
   xmlns:rdf="http://www.w3.org/1999/02/22-rdf-syntax-ns#"
   xmlns:svg="http://www.w3.org/2000/svg"
   xmlns="http://www.w3.org/2000/svg"
   xmlns:sodipodi="http://sodipodi.sourceforge.net/DTD/sodipodi-0.dtd"
   xmlns:inkscape="http://www.inkscape.org/namespaces/inkscape"
   width="31.64006mm"
   height="15.23129mm"
   viewBox="0 0 31.64006 15.23129"
   version="1.1"
   id="svg873"
   sodipodi:docname="ceph-logo.svg"
   inkscape:version="0.92.3 (2405546, 2018-03-11)">
  <defs
     id="defs867" />
  <sodipodi:namedview
     id="base"
     pagecolor="#ffffff"
     bordercolor="#666666"
     borderopacity="1.0"
     inkscape:pageopacity="0.0"
     inkscape:pageshadow="2"
     inkscape:zoom="0.98994949"
     inkscape:cx="573.78177"
     inkscape:cy="-227.4011"
     inkscape:document-units="mm"
     inkscape:current-layer="layer1"
     showgrid="false"
     fit-margin-top="2"
     fit-margin-left="2"
     fit-margin-right="2"
     fit-margin-bottom="2"
     inkscape:window-width="1920"
     inkscape:window-height="1080"
     inkscape:window-x="0"
     inkscape:window-y="0"
     inkscape:window-maximized="1" />
  <metadata
     id="metadata870">
    <rdf:RDF>
      <cc:Work
         rdf:about="">
        <dc:format>image/svg+xml</dc:format>
        <dc:type
           rdf:resource="http://purl.org/dc/dcmitype/StillImage" />
        <dc:title></dc:title>
      </cc:Work>
    </rdf:RDF>
  </metadata>
  <g
     inkscape:label="Layer 1"
     inkscape:groupmode="layer"
     id="layer1"
     transform="translate(375.65326,-61.842694)">
    <path
       inkscape:connector-curvature="0"
       style="fill:#f0424d;stroke-width:0.25359628"
       d="m -364.29306,74.002025 c -0.40575,-0.217079 -0.64109,-0.461546 -0.69282,-0.727822 -0.0497,-0.2574 0.0649,-0.543456 0.35123,-0.874907 0.68395,-0.784627 1.06054,-1.792925 1.06054,-2.838503 a 4.3314244,4.3314244 0 0 0 -4.32559,-4.325592 l -0.019,2.54e-4 -0.0195,-2.54e-4 a 4.3314244,4.3314244 0 0 0 -4.32534,4.325592 4.3187445,4.3187445 0 0 0 1.06079,2.838757 c 0.28834,0.333733 0.40069,0.608631 0.35504,0.863242 -0.0497,0.265515 -0.28327,0.513532 -0.69485,0.738472 -0.634,-0.526212 -1.19191,-1.228928 -1.53375,-1.933925 a 5.7160599,5.7160599 0 0 1 -0.42731,-1.200779 5.7363476,5.7363476 0 0 1 -0.14963,-1.306021 5.6856286,5.6856286 0 0 1 0.44912,-2.226067 c 0.28834,-0.680653 0.70044,-1.292327 1.22563,-1.817018 a 5.7084521,5.7084521 0 0 1 1.81727,-1.225377 5.6830926,5.6830926 0 0 1 2.22582,-0.449373 h 0.0388 a 5.6856286,5.6856286 0 0 1 2.22607,0.449373 c 0.68065,0.288085 1.29232,0.699926 1.81727,1.225377 a 5.7033803,5.7033803 0 0 1 1.22538,1.817018 5.6856286,5.6856286 0 0 1 0.44962,2.226067 c 0,0.440751 -0.0507,0.879979 -0.15216,1.306021 a 5.6881644,5.6881644 0 0 1 -0.42756,1.200779 c -0.34438,0.704997 -0.90204,1.40822 -1.53426,1.934432 m -2.11321,1.070176 c -0.0665,-0.04184 -0.29342,-0.210484 -0.51481,-0.517336 -0.21226,-0.292904 -0.46205,-0.779048 -0.44886,-1.429776 a 3.1598095,3.1598095 0 0 1 0.23382,-1.133575 3.2206726,3.2206726 0 0 1 0.62232,-0.972035 l 0.002,-0.0025 0.0588,-0.06847 c 0.10069,-0.116654 0.20492,-0.23762 0.28784,-0.378619 0.10245,-0.17346 0.17676,-0.356049 0.22114,-0.542696 a 2.04145,2.04145 0 0 0 0.0111,-0.884037 c -0.0563,-0.266779 -0.16992,-0.52494 -0.32816,-0.748105 a 2.038914,2.038914 0 0 0 -0.5782,-0.544471 2.0135544,2.0135544 0 0 0 -0.77803,-0.283267 2.0287702,2.0287702 0 0 0 -0.28479,-0.02029 h -0.0411 a 2.0059465,2.0059465 0 0 0 -0.28428,0.02004 2.0160904,2.0160904 0 0 0 -0.77803,0.283267 2.038914,2.038914 0 0 0 -0.57845,0.544471 2.0313062,2.0313062 0 0 0 -0.3279,0.748109 2.0363781,2.0363781 0 0 0 0.0114,0.884037 c 0.0441,0.186646 0.11868,0.368982 0.22063,0.542695 0.0837,0.141254 0.18766,0.261712 0.28808,0.37862 l 0.0591,0.06847 10e-4,0.0025 c 0.26729,0.287832 0.47676,0.614971 0.62258,0.972034 a 3.1522016,3.1522016 0 0 1 0.23356,1.133322 c 0.0132,0.650728 -0.2366,1.136872 -0.44886,1.429776 -0.22165,0.304315 -0.44887,0.475493 -0.5148,0.517336 l -0.33146,-0.09966 c -0.32866,-0.110061 -0.64844,-0.253596 -0.95276,-0.419955 0.52241,-0.278956 0.85462,-0.830275 0.85462,-1.428762 0,-0.39561 -0.15393,-0.776005 -0.45723,-1.128503 -0.005,-0.0051 -0.009,-0.0096 -0.0127,-0.01319 l -0.0908,-0.09941 -0.24345,-0.285296 a 3.413406,3.413406 0 0 1 -0.58327,-1.246679 3.4362295,3.4362295 0 0 1 -0.0188,-1.493682 c 0.0951,-0.451909 0.28733,-0.887587 0.55791,-1.267475 0.25918,-0.365178 0.59697,-0.682934 0.97635,-0.91954 a 3.4184778,3.4184778 0 0 1 1.3187,-0.480311 3.3500068,3.3500068 0 0 1 0.4798,-0.03373 h 0.0431 a 3.3804384,3.3804384 0 0 1 0.48006,0.03373 3.4184778,3.4184778 0 0 1 1.3187,0.480311 3.4438373,3.4438373 0 0 1 0.97686,0.91954 c 0.26779,0.377098 0.46002,0.815566 0.55791,1.267475 a 3.4590532,3.4590532 0 0 1 -0.019,1.496218 3.413406,3.413406 0 0 1 -0.58378,1.246679 c -0.0761,0.101438 -0.15622,0.189436 -0.24346,0.285296 l -0.088,0.09713 c -0.006,0.0058 -0.0112,0.01014 -0.0152,0.01623 -0.30761,0.367714 -0.45723,0.737204 -0.45723,1.127742 a 1.6255521,1.6255521 0 0 0 0.85563,1.428762 5.7084521,5.7084521 0 0 1 -0.95276,0.419956 l -0.32968,0.09966 m -1.52056,-4.329647 a 1.1310394,1.1310394 0 0 1 -1.12901,-1.12901 1.1310394,1.1310394 0 0 1 1.12901,-1.129011 1.1310394,1.1310394 0 0 1 1.12876,1.129011 1.1310394,1.1310394 0 0 1 -1.12876,1.12901"
       id="path2" />
    <path
       inkscape:connector-curvature="0"
       style="fill:#333c46;stroke-width:0.25359628"
       d="m -357.26109,70.187683 c 0,0.793757 -0.071,1.013117 -0.26222,1.204582 -0.11335,0.113358 -0.29062,0.191212 -0.62384,0.191212 h -1.16654 c -0.37533,0 -0.60204,-0.06391 -0.76079,-0.219361 -0.24777,-0.248017 -0.31852,-0.545739 -0.31852,-1.693262 0,-1.147523 0.071,-1.445499 0.31852,-1.693262 0.15621,-0.155962 0.38039,-0.219361 0.76079,-0.219361 h 1.16197 c 0.34692,0 0.50263,0.0705 0.62334,0.191211 0.18411,0.184111 0.25512,0.439229 0.25512,1.154371 h -0.71514 c -0.0145,-0.495781 -0.0426,-0.583272 -0.0852,-0.62334 -0.0426,-0.04007 -0.10144,-0.0634 -0.26197,-0.0634 h -0.88555 c -0.21962,0 -0.27896,0.0213 -0.32562,0.07101 -0.071,0.07101 -0.10651,0.202877 -0.10651,1.183027 0,0.980149 0.0355,1.112273 0.10651,1.183026 0.0494,0.04971 0.10651,0.07101 0.32562,0.07101 h 0.89266 c 0.15596,0 0.22722,-0.0142 0.27895,-0.0634 0.0517,-0.0492 0.0781,-0.191465 0.0781,-0.673044 h 0.71565 m 1.24135,-0.865271 h 1.74272 c 0,-0.644642 -0.0426,-0.786149 -0.10601,-0.850055 -0.0431,-0.04235 -0.10651,-0.07101 -0.32587,-0.07101 h -0.87871 c -0.21961,0 -0.27896,0.0213 -0.33297,0.07785 -0.0639,0.06391 -0.0918,0.191212 -0.10144,0.842954 z m 0,0.588343 c 0.008,0.750645 0.0494,0.899506 0.10651,0.956058 0.0571,0.05655 0.10651,0.07101 0.32562,0.07101 h 0.98903 c 0.16306,0 0.21302,-0.0284 0.25537,-0.07101 0.0492,-0.04971 0.0634,-0.134406 0.0779,-0.474732 h 0.71514 c -0.0142,0.594937 -0.071,0.807704 -0.26222,0.999169 -0.1202,0.120459 -0.28327,0.191212 -0.62334,0.191212 h -1.24262 c -0.37532,0 -0.60229,-0.06391 -0.76079,-0.219361 -0.24852,-0.248017 -0.31852,-0.545739 -0.31852,-1.693262 0,-1.147523 0.0705,-1.445499 0.31852,-1.693262 0.15596,-0.155962 0.38039,-0.219361 0.76079,-0.219361 h 1.04837 c 0.37583,0 0.61624,0.0705 0.76078,0.21226 0.24777,0.248017 0.31852,0.545739 0.31852,1.665113 v 0.191212 c 0,0.0563 -0.0211,0.08496 -0.0852,0.08496 h -2.38888 m 5.36179,0.928162 c -0.0634,0.0634 -0.15621,0.09206 -0.38952,0.09206 H -351.6 c -0.22672,0 -0.42351,-0.06391 -0.69435,-0.201609 l -0.0494,-0.02485 v -2.083801 c 0.28352,-0.141507 0.48183,-0.212514 0.71565,-0.212514 h 0.58327 c 0.23331,0 0.32587,0.0284 0.38952,0.09206 0.10651,0.106511 0.13441,0.311417 0.13441,1.166543 0,0.855127 -0.0284,1.065105 -0.13441,1.166543 z m -0.21301,-3.08931 h -0.51683 c -0.31903,0 -0.47474,0.07101 -0.95657,0.467885 V 67.75824 h -0.73619 v 4.671243 h 0.7367 v -1.297145 c 0.48183,0.389524 0.63754,0.460277 0.95656,0.460277 h 0.51683 c 0.41134,0 0.61675,-0.07101 0.77956,-0.233308 0.20287,-0.202877 0.30431,-0.496034 0.30431,-1.686415 0,-1.190381 -0.0994,-1.481002 -0.30431,-1.686416 -0.16281,-0.162808 -0.36822,-0.234069 -0.77956,-0.234069 m 4.62687,0.220122 c -0.14202,-0.142014 -0.32587,-0.219868 -0.65885,-0.219868 h -0.60203 c -0.31877,0 -0.47474,0.07101 -0.95657,0.467885 v -1.458179 a 2.657689,2.657689 0 0 0 -0.73137,-0.274137 c -0.002,0 -0.003,0.0013 -0.005,0.0018 v 5.09373 h 0.7367 v -2.962005 l 0.15292,-0.07227 c 0.20668,-0.09282 0.37329,-0.139985 0.56298,-0.139985 h 0.49603 c 0.24802,0 0.31877,0.0284 0.39663,0.10651 0.071,0.07101 0.10144,0.183858 0.10144,0.368222 v 2.699533 h 0.7372 v -2.748984 c 0,-0.531538 -0.0781,-0.715649 -0.22697,-0.864256"
       id="path4" />
  </g>
</svg>
